<?xml version="1.0" encoding="UTF-8"?>
<!DOCTYPE svg PUBLIC "-//W3C//DTD SVG 1.1//EN" "http://www.w3.org/Graphics/SVG/1.1/DTD/svg11.dtd">
<!-- Creator: CorelDRAW 2019 (64-Bit) -->
<svg xmlns="http://www.w3.org/2000/svg" xml:space="preserve" width="0.223961in" height="0.24276in" version="1.1" style="shape-rendering:geometricPrecision; text-rendering:geometricPrecision; image-rendering:optimizeQuality; fill-rule:evenodd; clip-rule:evenodd"
viewBox="0 0 65.35 70.84"
 xmlns:xlink="http://www.w3.org/1999/xlink"
 xmlns:xodm="http://www.corel.com/coreldraw/odm/2003">
 <defs>
  <style type="text/css">
   <![CDATA[
    .str0 {stroke:black;stroke-width:6.08;stroke-linecap:round;stroke-linejoin:round;stroke-miterlimit:2.61313}
    .fil0 {fill:none}
   ]]>
  </style>
 </defs>
 <g id="Layer_x0020_1">
  <metadata id="CorelCorpID_0Corel-Layer"/>
  <path class="fil0 str0" d="M24.32 58.68c-15.2,4.56 -15.2,-7.6 -21.28,-9.12m42.56 18.24l0 -11.76c0.02,-0.27 0.03,-0.54 0.03,-0.8 0,-2.66 -1.04,-5.22 -2.89,-7.13 9.54,-1.06 19.58,-4.68 19.58,-21.28 0,-4.24 -1.63,-8.33 -4.56,-11.4 0.64,-1.72 0.97,-3.55 0.97,-5.39 0,-2.09 -0.43,-4.15 -1.25,-6.07 -0.82,-1.92 -3.59,-1.06 -11.89,4.5 -3.46,-0.94 -7.05,-1.42 -10.64,-1.42 -3.59,0 -7.18,0.48 -10.64,1.42 -8.3,-5.56 -11.89,-4.5 -11.89,-4.5 -0.82,1.92 -1.24,3.98 -1.24,6.07 0,1.84 0.33,3.67 0.97,5.39 -2.93,3.07 -4.56,7.16 -4.56,11.4 0,0.03 0,0.06 0,0.09 0,16.47 10.03,20.09 19.58,21.28 -1.85,1.91 -2.88,4.46 -2.88,7.12 0,0.24 0.01,0.48 0.03,0.72l-0 11.76"/>
 </g>
</svg>
