<?xml version="1.0" encoding="UTF-8"?>
<!DOCTYPE svg PUBLIC "-//W3C//DTD SVG 1.1//EN" "http://www.w3.org/Graphics/SVG/1.1/DTD/svg11.dtd">
<!-- Creator: CorelDRAW 2019 (64-Bit) -->
<svg xmlns="http://www.w3.org/2000/svg" xml:space="preserve" width="0.250268in" height="0.231689in" version="1.1" style="shape-rendering:geometricPrecision; text-rendering:geometricPrecision; image-rendering:optimizeQuality; fill-rule:evenodd; clip-rule:evenodd"
viewBox="0 0 72.93 67.51"
 xmlns:xlink="http://www.w3.org/1999/xlink"
 xmlns:xodm="http://www.corel.com/coreldraw/odm/2003">
 <defs>
  <style type="text/css">
   <![CDATA[
    .str0 {stroke:black;stroke-width:6.07;stroke-linecap:round;stroke-linejoin:round;stroke-miterlimit:2.61313}
    .fil0 {fill:none}
   ]]>
  </style>
 </defs>
 <g id="Layer_x0020_1">
  <metadata id="CorelCorpID_0Corel-Layer"/>
  <path class="fil0 str0" d="M68.73 40.99l-32.33 23.49 -32.33 -23.49c-0.65,-0.48 -1.04,-1.24 -1.04,-2.06 0,-0.27 0.04,-0.54 0.13,-0.8l3.7 -11.47 7.41 -22.79c0.07,-0.18 0.19,-0.35 0.33,-0.48 0.24,-0.22 0.55,-0.34 0.88,-0.34 0.33,0 0.64,0.12 0.88,0.34 0.16,0.15 0.27,0.34 0.33,0.55l7.41 22.73 24.59 0 7.41 -22.79c0.07,-0.18 0.19,-0.35 0.33,-0.49 0.24,-0.22 0.55,-0.34 0.88,-0.34 0.33,0 0.64,0.12 0.88,0.34 0.16,0.15 0.27,0.34 0.33,0.55l7.41 22.79 3.85 11.41c0.07,0.23 0.1,0.47 0.1,0.71 0,0.86 -0.44,1.67 -1.16,2.14l0 0z"/>
 </g>
</svg>
